0
SECTION
2
HEADER
9
$INSUNITS
70
1
9
$ACADVER
1
AC1014
9
$HANDSEED
5
FFFF
0
ENDSEC
0
SECTION
2
TABLES
0
TABLE
2
VPORT
5
8
100
AcDbSymbolTable
0
ENDTAB
0
TABLE
2
LTYPE
5
5
100
AcDbSymbolTable
0
LTYPE
5
14
100
AcDbSymbolTableRecord
100
AcDbLinetypeTableRecord
2
BYBLOCK
70
0
0
LTYPE
5
15
100
AcDbSymbolTableRecord
100
AcDbLinetypeTableRecord
2
BYLAYER
70
0
0
ENDTAB
0
TABLE
2
LAYER
5
2
100
AcDbSymbolTable
70
2
0
LAYER
5
50
100
AcDbSymbolTableRecord
100
AcDbLayerTableRecord
2
0
70
0
6
CONTINUOUS
0
ENDTAB
0
TABLE
2
STYLE
5
3
100
AcDbSymbolTable
70
1
0
STYLE
5
11
100
AcDbSymbolTableRecord
100
AcDbTextStyleTableRecord
2
STANDARD
70
0
0
ENDTAB
0
TABLE
2
VIEW
5
6
100
AcDbSymbolTable
70
0
0
ENDTAB
0
TABLE
2
UCS
5
7
100
AcDbSymbolTable
70
0
0
ENDTAB
0
TABLE
2
APPID
5
9
100
AcDbSymbolTable
70
2
0
APPID
5
12
100
AcDbSymbolTableRecord
100
AcDbRegAppTableRecord
2
ACAD
70
0
0
ENDTAB
0
TABLE
2
DIMSTYLE
5
A
100
AcDbSymbolTable
70
1
0
ENDTAB
0
TABLE
2
BLOCK_RECORD
5
1
100
AcDbSymbolTable
70
1
0
BLOCK_RECORD
5
1F
100
AcDbSymbolTableRecord
100
AcDbBlockTableRecord
2
*MODEL_SPACE
0
BLOCK_RECORD
5
1B
100
AcDbSymbolTableRecord
100
AcDbBlockTableRecord
2
*PAPER_SPACE
0
ENDTAB
0
ENDSEC
0
SECTION
2
BLOCKS
0
BLOCK
5
20
100
AcDbEntity
100
AcDbBlockBegin
2
*MODEL_SPACE
0
ENDBLK
5
21
100
AcDbEntity
100
AcDbBlockEnd
0
BLOCK
5
1C
100
AcDbEntity
100
AcDbBlockBegin
2
*PAPER_SPACE
0
ENDBLK
5
1D
100
AcDbEntity
100
AcDbBlockEnd
0
ENDSEC
0
SECTION
2
ENTITIES
0
LINE
5
100
100
AcDbEntity
8
0
100
AcDbLine
10
0.25000000797857447
20
0
30
0
11
0.70500000797857432
21
0
31
0
0
LINE
5
101
100
AcDbEntity
8
0
100
AcDbLine
10
0.70500000797857432
20
0
30
0
11
0.70500000797857432
21
0.32000000000000001
31
0
0
LINE
5
102
100
AcDbEntity
8
0
100
AcDbLine
10
0.70500000797857432
20
0.32000000000000001
30
0
11
0.25000000797857447
21
0.32000000000000001
31
0
0
LINE
5
103
100
AcDbEntity
8
0
100
AcDbLine
10
0.25000000797857447
20
0.32000000000000001
30
0
11
0.25000000797857447
21
0
31
0
0
LINE
5
104
100
AcDbEntity
8
0
100
AcDbLine
10
0.25000000797857447
20
0.32000000000000001
30
0
11
0.70500000797857432
21
0.32000000000000001
31
0
0
LINE
5
105
100
AcDbEntity
8
0
100
AcDbLine
10
0.70500000797857432
20
3.6699999999999995
30
0
11
0.25000000797857447
21
3.6699999999999995
31
0
0
LINE
5
106
100
AcDbEntity
8
0
100
AcDbLine
10
0.25000000797857447
20
3.6699999999999995
30
0
11
0.70500000797857432
21
3.6699999999999995
31
0
0
LINE
5
107
100
AcDbEntity
8
0
100
AcDbLine
10
0.70500000797857432
20
3.6699999999999995
30
0
11
0.70500000797857432
21
3.7624999999999993
31
0
0
LINE
5
108
100
AcDbEntity
8
0
100
AcDbLine
10
0.47750000797857456
20
3.9899999999999993
30
0
11
0.47750000797857456
21
3.9899999999999993
31
0
0
LINE
5
109
100
AcDbEntity
8
0
100
AcDbLine
10
0.25000000797857447
20
3.7624999999999993
30
0
11
0.25000000797857447
21
3.6699999999999995
31
0
0
ARC
5
110
100
AcDbEntity
8
0
100
AcDbCircle
10
0.47750000797857395
20
3.7625000000000002
30
0
40
0.22749999999999918
100
AcDbArc
50
89.999999999999844
51
180
0
ARC
5
111
100
AcDbEntity
8
0
100
AcDbCircle
10
0.47750000797857495
20
3.7625000000000002
30
0
40
0.22749999999999937
100
AcDbArc
50
0
51
90.000000000000099
0
LINE
5
112
100
AcDbEntity
8
0
100
AcDbLine
10
0.32000000797857447
20
3.6699999999999995
30
0
11
0.32000000797857447
21
0.31999999999999967
31
0
0
LINE
5
113
100
AcDbEntity
8
0
100
AcDbLine
10
0.63500000797857437
20
0.32000000000000001
30
0
11
0.63500000797857437
21
3.6699999999999995
31
0
0
LINE
5
114
100
AcDbEntity
8
0
100
AcDbLine
10
0.47750000797857434
20
3.6699999999999995
30
0
11
0.47750000797857434
21
0.32000000000000001
31
0
0
LINE
5
115
100
AcDbEntity
8
0
100
AcDbLine
10
0.25000000797857447
20
0
30
0
11
0.47750000797857445
21
0
31
0
0
LINE
5
116
100
AcDbEntity
8
0
100
AcDbLine
10
0.62750000797857441
20
-0.29999999999999993
30
0
11
0.62750000797857441
21
0
31
0
0
LINE
5
117
100
AcDbEntity
8
0
100
AcDbLine
10
0.62750000797857441
20
0
30
0
11
0.47750000797857445
21
0
31
0
0
LINE
5
118
100
AcDbEntity
8
0
100
AcDbLine
10
0.32750000797857448
20
-0.29999999999999993
30
0
11
0.32750000797857448
21
0
31
0
0
LINE
5
119
100
AcDbEntity
8
0
100
AcDbLine
10
0.32750000797857448
20
0
30
0
11
0.47750000797857445
21
0
31
0
0
LINE
5
120
100
AcDbEntity
8
0
100
AcDbLine
10
0.32750000797857448
20
0
30
0
11
0.62750000797857441
21
0
31
0
0
LINE
5
121
100
AcDbEntity
8
0
100
AcDbLine
10
0.62750000797857441
20
0
30
0
11
0.62750000797857441
21
-0.29999999999999993
31
0
0
LINE
5
122
100
AcDbEntity
8
0
100
AcDbLine
10
0.62750000797857441
20
-0.29999999999999993
30
0
11
0.32750000797857448
21
-0.29999999999999993
31
0
0
LINE
5
123
100
AcDbEntity
8
0
100
AcDbLine
10
0.32750000797857448
20
-0.29999999999999993
30
0
11
0.32750000797857448
21
0
31
0
0
LINE
5
124
100
AcDbEntity
8
0
100
AcDbLine
10
0.70500000797857432
20
3.6699999999999995
30
0
11
0.70500000797857432
21
0.32000000000000001
31
0
0
LINE
5
125
100
AcDbEntity
8
0
100
AcDbLine
10
0.25000000797857447
20
0.32000000000000001
30
0
11
0.25000000797857447
21
3.6699999999999995
31
0
0
CIRCLE
5
126
100
AcDbEntity
8
0
100
AcDbCircle
10
0.47750000797857473
20
-0.69999999999999996
30
0
40
0.39999999999999997
0
CIRCLE
5
127
100
AcDbEntity
8
0
100
AcDbCircle
10
0.47750000797857473
20
-0.69999999999999996
30
0
40
0.12499999999999994
0
CIRCLE
5
128
100
AcDbEntity
8
0
100
AcDbCircle
10
0.47750000797857473
20
-0.69999999999999996
30
0
40
0.17499999999999999
0
LINE
5
129
100
AcDbEntity
8
0
100
AcDbLine
10
0.077500007978574911
20
3.7624999999999993
30
0
11
0.077500007978574731
21
-0.70000000000000062
31
0
0
LINE
5
130
100
AcDbEntity
8
0
100
AcDbLine
10
0.87750000797857464
20
-0.69999999999999996
30
0
11
0.87750000797857508
21
3.7625000000000002
31
0
0
ARC
5
131
100
AcDbEntity
8
0
100
AcDbCircle
10
0.47750000797857495
20
3.7625000000000002
30
0
40
0.40000000000000008
100
AcDbArc
50
0
51
180
0
LINE
5
132
100
AcDbEntity
8
0
100
AcDbLine
10
0.62750000797857441
20
-0.29999999999999993
30
0
11
0.87750000797857464
21
-0.29999999999999993
31
0
0
LINE
5
133
100
AcDbEntity
8
0
100
AcDbLine
10
0.32750000797857448
20
-0.29999999999999993
30
0
11
0.077500007978574745
21
-0.29999999999999993
31
0
0
CIRCLE
5
134
100
AcDbEntity
8
0
100
AcDbCircle
10
0.1825000079785748
20
-0.69999999999999996
30
0
40
0.025000000000000026
0
CIRCLE
5
135
100
AcDbEntity
8
0
100
AcDbCircle
10
0.77250000797857465
20
-0.69999999999999996
30
0
40
0.025000000000000026
0
ENDSEC
0
SECTION
2
OBJECTS
0
DICTIONARY
5
C
100
AcDbDictionary
3
ACAD_GROUP
350
D
3
ACAD_MLINESTYLE
350
17
0
DICTIONARY
5
D
100
AcDbDictionary
0
DICTIONARY
5
1A
330
C
100
AcDbDictionary
0
DICTIONARY
5
17
100
AcDbDictionary
0
ENDSEC
0
EOF
